<svg width="88" height="100" viewBox="0 0 88 100" fill="none" xmlns="http://www.w3.org/2000/svg">
<path d="M3.54688 30.0964V69.2163C3.54688 71.7139 4.87881 74.0236 7.03652 75.2683L40.85 94.8324C43.0078 96.0771 45.6644 96.0771 47.8221 94.8324L81.6356 75.2683C83.7933 74.0236 85.1253 71.7139 85.1253 69.2163V30.0964C85.1253 27.5989 83.7933 25.2891 81.6356 24.0444L47.8221 4.4804C45.6644 3.2357 43.0078 3.2357 40.85 4.4804L7.02837 24.0444C4.87066 25.2891 3.54688 27.5989 3.54688 30.0964Z" fill="#213147"/>
<path d="M51.1151 57.5184L46.2127 70.8303C46.0801 71.2004 46.0801 71.6041 46.2127 71.9742L54.6461 94.8792L64.4003 89.3011L52.6928 57.5184C52.4268 56.7865 51.3802 56.7865 51.1142 57.5184H51.1151Z" fill="#12AAFF"/>
<path d="M60.9398 35.1312C60.6738 34.3993 59.6272 34.3993 59.3612 35.1312L54.4588 48.4431C54.3262 48.8132 54.3262 49.2169 54.4588 49.587L68.276 87.0882L78.0302 81.51L60.9389 35.1312H60.9398Z" fill="#12AAFF"/>
<path fill-rule="evenodd" clip-rule="evenodd" d="M40.1303 1.0103C41.2917 0.334058 42.5927 0 43.8846 0C45.1766 0 46.4766 0.334058 47.6389 1.0103L84.0311 22.0695C86.3548 23.4139 87.7854 25.8994 87.7854 28.5891V70.7156C87.7854 73.4043 86.3557 75.8908 84.0311 77.2352L47.647 98.3025C46.4856 98.9787 45.1928 99.3128 43.8927 99.3128C42.5927 99.3128 41.3007 98.9706 40.1384 98.3025L3.75428 77.2352C1.43059 75.8908 0 73.4052 0 70.7156V28.5891C0 25.9003 1.42969 23.4139 3.75428 22.0695L40.1303 1.0103ZM44.5688 6.33256C44.3582 6.2179 44.1223 6.15289 43.8864 6.15289C43.6505 6.15289 43.4155 6.2188 43.204 6.34069L6.81981 27.408C6.39757 27.6527 6.13738 28.1005 6.13738 28.5899V70.7245C6.13738 71.2058 6.39757 71.6617 6.81981 71.9064L43.204 92.9575C43.4146 93.0721 43.6505 93.1371 43.8864 93.1371C44.1223 93.1371 44.3654 93.0794 44.5688 92.9575L80.953 71.8901C81.3752 71.6455 81.6354 71.1976 81.6354 70.7083V28.5817C81.6354 28.1005 81.3752 27.6446 80.953 27.3999L44.5688 6.33256Z" fill="#9DCCED"/>
<path d="M19.5078 86.4526L22.7461 77.1448L29.2617 82.8298L23.1701 88.6722L19.5078 86.4526Z" fill="#213147"/>
<path d="M41.4214 25.7148H32.1239C31.4279 25.7148 30.8053 26.1439 30.5675 26.7928L10.6367 80.834L20.2536 86.3271L42.2 26.8171C42.4051 26.2821 42.0031 25.7148 41.4214 25.7148Z" fill="white"/>
<path d="M57.6888 25.7148H48.3913C47.6953 25.7148 47.0727 26.1439 46.8349 26.7928L24.0781 88.4992L33.695 93.9924L58.4674 26.8171C58.6644 26.2821 58.2623 25.7148 57.6888 25.7148Z" fill="white"/>
</svg>
