<svg width="136" height="47" viewBox="0 0 136 47" fill="none" xmlns="http://www.w3.org/2000/svg">
<path d="M66.9692 29.67H73.8692V33H62.7692V12.06H66.9692V29.67ZM76.7254 21.78C76.7254 18.32 77.3454 15.61 78.5854 13.65C79.8454 11.69 81.9254 10.71 84.8254 10.71C87.7254 10.71 89.7954 11.69 91.0354 13.65C92.2954 15.61 92.9254 18.32 92.9254 21.78C92.9254 25.26 92.2954 27.99 91.0354 29.97C89.7954 31.95 87.7254 32.94 84.8254 32.94C81.9254 32.94 79.8454 31.95 78.5854 29.97C77.3454 27.99 76.7254 25.26 76.7254 21.78ZM88.7854 21.78C88.7854 20.3 88.6854 19.06 88.4854 18.06C88.3054 17.04 87.9254 16.21 87.3454 15.57C86.7854 14.93 85.9454 14.61 84.8254 14.61C83.7054 14.61 82.8554 14.93 82.2754 15.57C81.7154 16.21 81.3354 17.04 81.1354 18.06C80.9554 19.06 80.8654 20.3 80.8654 21.78C80.8654 23.3 80.9554 24.58 81.1354 25.62C81.3154 26.64 81.6954 27.47 82.2754 28.11C82.8554 28.73 83.7054 29.04 84.8254 29.04C85.9454 29.04 86.7954 28.73 87.3754 28.11C87.9554 27.47 88.3354 26.64 88.5154 25.62C88.6954 24.58 88.7854 23.3 88.7854 21.78ZM104.197 29.13L108.397 16.38H112.867L106.717 33H101.617L95.4966 16.38H99.9966L104.197 29.13ZM114.812 24.63C114.812 22.95 115.142 21.46 115.802 20.16C116.482 18.86 117.402 17.86 118.562 17.16C119.722 16.46 121.012 16.11 122.432 16.11C123.512 16.11 124.542 16.35 125.522 16.83C126.502 17.29 127.282 17.91 127.862 18.69V10.8H132.122V33H127.862V30.54C127.342 31.36 126.612 32.02 125.672 32.52C124.732 33.02 123.642 33.27 122.402 33.27C121.002 33.27 119.722 32.91 118.562 32.19C117.402 31.47 116.482 30.46 115.802 29.16C115.142 27.84 114.812 26.33 114.812 24.63ZM127.892 24.69C127.892 23.67 127.692 22.8 127.292 22.08C126.892 21.34 126.352 20.78 125.672 20.4C124.992 20 124.262 19.8 123.482 19.8C122.702 19.8 121.982 19.99 121.322 20.37C120.662 20.75 120.122 21.31 119.702 22.05C119.302 22.77 119.102 23.63 119.102 24.63C119.102 25.63 119.302 26.51 119.702 27.27C120.122 28.01 120.662 28.58 121.322 28.98C122.002 29.38 122.722 29.58 123.482 29.58C124.262 29.58 124.992 29.39 125.672 29.01C126.352 28.61 126.892 28.05 127.292 27.33C127.692 26.59 127.892 25.71 127.892 24.69Z" fill="black"/>
<path fill-rule="evenodd" clip-rule="evenodd" d="M21.5721 43.1598C22.3972 43.5546 23.2089 43.7632 24.3081 43.7632L24.3083 43.7634C26.201 43.7634 27.9199 43.0024 29.1605 41.7749L43.6837 27.5079C46.5896 24.7417 48.5994 20.917 48.3921 16.5363C48.2642 13.8237 47.5794 11.4754 46.4076 9.53306C44.1491 5.78947 40.0814 3.55323 34.7049 3.11963C30.9928 2.81852 27.5686 4.00308 25.0368 6.32283C24.8327 6.50811 24.6356 6.70002 24.4449 6.89855C24.3813 6.96158 24.3244 7.021 24.2642 7.08725L19.3284 11.9708L18.4048 12.8831L14.223 7.86624C12.678 6.15654 11.1263 5.42484 8.82899 5.40517H8.75881C7.41774 5.40517 6.1671 5.78256 5.10034 6.42894C4.99988 6.48796 4.90303 6.54698 4.80598 6.61262C4.71234 6.67505 4.61869 6.74069 4.52505 6.80954C4.50863 6.82181 4.49204 6.83407 4.4754 6.84636C4.42071 6.88676 4.3655 6.92755 4.31431 6.97034C4.25074 7.01952 4.19058 7.0687 4.13043 7.12129C4.08351 7.16064 4.03679 7.19998 3.99327 7.23933C3.9078 7.31363 3.69738 7.52002 3.61433 7.6015C3.65581 7.55844 3.69852 7.51518 3.74249 7.47166C1.13414 10.0193 0 12.7345 0 16.6354C0 20.5364 1.60516 24.0668 4.20028 26.6146L4.19687 26.6178L4.57144 26.9884L18.9643 41.2288L19.7435 41.929C20.2927 42.4224 20.9061 42.8412 21.5721 43.1598Z" fill="url(#paint0_linear_660_327)"/>
<defs>
<linearGradient id="paint0_linear_660_327" x1="-18.2486" y1="15.7181" x2="18.2435" y2="63.0218" gradientUnits="userSpaceOnUse">
<stop stop-color="white"/>
<stop offset="1" stop-color="#DB1414"/>
</linearGradient>
</defs>
</svg>
