<svg width="136" height="45" viewBox="0 0 136 45" fill="none" xmlns="http://www.w3.org/2000/svg">
<g clip-path="url(#clip0_658_320)">
<path fill-rule="evenodd" clip-rule="evenodd" d="M22.2821 42.8911C23.1344 43.299 23.9728 43.5144 25.1082 43.5144L25.1084 43.5146C27.0634 43.5146 28.8388 42.7286 30.1203 41.4606L45.1215 26.7241C48.123 23.8669 50.199 19.9163 49.9848 15.3914C49.8527 12.5895 49.1454 10.1639 47.935 8.15765C45.6022 4.29084 41.4006 1.981 35.8471 1.53313C32.0129 1.22211 28.476 2.44567 25.8609 4.84176C25.65 5.03315 25.4464 5.23137 25.2495 5.43643C25.1838 5.50154 25.125 5.56292 25.0628 5.63134L19.9646 10.6757L19.0111 11.6175L14.6921 6.43608C13.0962 4.67011 11.4935 3.91433 9.12057 3.89401H9.04807C7.66286 3.89401 6.37106 4.28382 5.26919 4.95148C5.16542 5.01243 5.06538 5.0734 4.96514 5.1412C4.86841 5.20568 4.77169 5.27348 4.67496 5.3446C4.65801 5.35728 4.64086 5.36994 4.62368 5.38264C4.56718 5.42437 4.51016 5.46649 4.45728 5.51069C4.39163 5.56149 4.32949 5.61229 4.26736 5.66661C4.21889 5.70725 4.17063 5.74789 4.12569 5.78853C4.03694 5.86568 3.81777 6.0807 3.73293 6.16394L3.7303 6.16653C3.72515 6.17158 3.72001 6.17664 3.71488 6.1817C3.76347 6.13089 3.81371 6.07982 3.86567 6.02841C1.17146 8.65985 0 11.4644 0 15.4938C0 19.5231 1.65799 23.1698 4.33852 25.8014L4.335 25.8047L4.7219 26.1875L19.5885 40.8966L20.3933 41.6199C20.9606 42.1295 21.5942 42.5621 22.2821 42.8911Z" fill="url(#paint0_linear_658_320)"/>
<path d="M68.27 29.67H75.17V33H64.07V12.06H68.27V29.67ZM78.0262 21.78C78.0262 18.32 78.6462 15.61 79.8862 13.65C81.1462 11.69 83.2262 10.71 86.1262 10.71C89.0262 10.71 91.0962 11.69 92.3362 13.65C93.5962 15.61 94.2262 18.32 94.2262 21.78C94.2262 25.26 93.5962 27.99 92.3362 29.97C91.0962 31.95 89.0262 32.94 86.1262 32.94C83.2262 32.94 81.1462 31.95 79.8862 29.97C78.6462 27.99 78.0262 25.26 78.0262 21.78ZM90.0862 21.78C90.0862 20.3 89.9862 19.06 89.7862 18.06C89.6062 17.04 89.2262 16.21 88.6462 15.57C88.0862 14.93 87.2462 14.61 86.1262 14.61C85.0062 14.61 84.1562 14.93 83.5762 15.57C83.0162 16.21 82.6362 17.04 82.4362 18.06C82.2562 19.06 82.1662 20.3 82.1662 21.78C82.1662 23.3 82.2562 24.58 82.4362 25.62C82.6162 26.64 82.9962 27.47 83.5762 28.11C84.1562 28.73 85.0062 29.04 86.1262 29.04C87.2462 29.04 88.0962 28.73 88.6762 28.11C89.2562 27.47 89.6362 26.64 89.8162 25.62C89.9962 24.58 90.0862 23.3 90.0862 21.78ZM105.497 29.13L109.697 16.38H114.167L108.017 33H102.917L96.7974 16.38H101.297L105.497 29.13ZM116.113 24.63C116.113 22.95 116.443 21.46 117.103 20.16C117.783 18.86 118.703 17.86 119.863 17.16C121.023 16.46 122.313 16.11 123.733 16.11C124.813 16.11 125.843 16.35 126.823 16.83C127.803 17.29 128.583 17.91 129.163 18.69V10.8H133.423V33H129.163V30.54C128.643 31.36 127.913 32.02 126.973 32.52C126.033 33.02 124.943 33.27 123.703 33.27C122.303 33.27 121.023 32.91 119.863 32.19C118.703 31.47 117.783 30.46 117.103 29.16C116.443 27.84 116.113 26.33 116.113 24.63ZM129.193 24.69C129.193 23.67 128.993 22.8 128.593 22.08C128.193 21.34 127.653 20.78 126.973 20.4C126.293 20 125.563 19.8 124.783 19.8C124.003 19.8 123.283 19.99 122.623 20.37C121.963 20.75 121.423 21.31 121.003 22.05C120.603 22.77 120.403 23.63 120.403 24.63C120.403 25.63 120.603 26.51 121.003 27.27C121.423 28.01 121.963 28.58 122.623 28.98C123.303 29.38 124.023 29.58 124.783 29.58C125.563 29.58 126.293 29.39 126.973 29.01C127.653 28.61 128.193 28.05 128.593 27.33C128.993 26.59 129.193 25.71 129.193 24.69Z" fill="white"/>
</g>
<defs>
<linearGradient id="paint0_linear_658_320" x1="-18.8492" y1="14.5462" x2="18.8439" y2="63.4069" gradientUnits="userSpaceOnUse">
<stop stop-color="white"/>
<stop offset="1" stop-color="#DB1414"/>
</linearGradient>
<clipPath id="clip0_658_320">
<rect width="136" height="45" fill="white"/>
</clipPath>
</defs>
</svg>
