<svg width="100" height="100" viewBox="0 0 100 100" fill="none" xmlns="http://www.w3.org/2000/svg">
<path fill-rule="evenodd" clip-rule="evenodd" d="M49.6564 99.3128C77.0808 99.3128 99.3128 77.0808 99.3128 49.6564C99.3128 22.232 77.0808 0 49.6564 0C22.232 0 0 22.232 0 49.6564C0 77.0808 22.232 99.3128 49.6564 99.3128ZM30.9631 63.2961C32.3217 63.7238 33.7935 63.9377 35.3785 63.9377C39.0267 63.9377 41.9326 63.0949 44.0962 61.4092C46.2598 59.6984 47.7694 57.1195 48.6249 53.6727C48.8765 52.5908 49.1155 51.5091 49.3419 50.4272C49.5936 49.3453 49.8073 48.2508 49.9835 47.1439C50.2854 45.4331 50.2351 43.9361 49.8325 42.653C49.4551 41.3698 48.7883 40.2879 47.8324 39.4074C46.9014 38.5269 45.7567 37.8726 44.3981 37.445C43.0648 36.9921 41.6054 36.7657 40.0204 36.7657C36.3472 36.7657 33.4286 37.6462 31.265 39.4074C29.1014 41.1686 27.6043 43.7474 26.7741 47.1439C26.5224 48.2508 26.271 49.3453 26.0193 50.4272C25.7929 51.5091 25.5789 52.5908 25.3777 53.6727C25.1011 55.3835 25.1513 56.8805 25.5287 58.1636C25.9313 59.4468 26.5979 60.516 27.5289 61.3714C28.4598 62.2269 29.6045 62.8685 30.9631 63.2961ZM39.4541 57.2956C38.4226 58.1006 37.2275 58.5032 35.8689 58.5032C34.4851 58.5032 33.4914 58.1006 32.8875 57.2956C32.2837 56.4905 32.1328 55.2074 32.4347 53.4462C32.6359 52.3393 32.8373 51.2951 33.0385 50.3139C33.2649 49.3327 33.5166 48.3137 33.7933 47.257C34.2209 45.4958 34.938 44.2127 35.9444 43.4077C36.9759 42.6026 38.171 42.2 39.5296 42.2C40.8882 42.2 41.8819 42.6026 42.511 43.4077C43.14 44.2127 43.291 45.4958 42.9638 47.257C42.7876 48.3137 42.5864 49.3327 42.36 50.3139C42.1588 51.2951 41.9196 52.3393 41.643 53.4462C41.2153 55.2074 40.4856 56.4905 39.4541 57.2956ZM50.9213 63.296C51.0722 63.4722 51.2735 63.5602 51.5251 63.5602H56.6576C56.9343 63.5602 57.1732 63.4722 57.3746 63.296C57.6011 63.1198 57.7393 62.8934 57.7898 62.6167L59.5257 54.3519H64.6205C67.866 54.3519 70.4448 53.6601 72.357 52.2763C74.2942 50.8925 75.5773 48.754 76.2063 45.8607C76.5082 44.4014 76.4955 43.131 76.1686 42.049C75.8415 40.9421 75.2629 40.0237 74.4326 39.2941C73.6023 38.5646 72.5582 38.0235 71.3003 37.6713C70.0674 37.3192 68.6836 37.143 67.149 37.143H57.1105C56.8588 37.143 56.6199 37.231 56.3934 37.4072C56.167 37.5833 56.0285 37.8098 55.9783 38.0865L50.7703 62.6167C50.7199 62.8934 50.7703 63.1198 50.9213 63.296ZM64.8529 49.144H60.5129L61.9847 42.3888H66.5134C67.4191 42.3888 68.0857 42.5397 68.5135 42.8416C68.9664 43.1435 69.2306 43.5462 69.306 44.0493C69.3815 44.5524 69.3563 45.1312 69.2306 45.7853C68.9789 46.9174 68.4381 47.7602 67.6078 48.3138C66.8026 48.8673 65.8843 49.144 64.8529 49.144Z" fill="#FF0420"/>
</svg>
