<svg width="184" height="170" viewBox="0 0 184 170" fill="none" xmlns="http://www.w3.org/2000/svg">
<path d="M176.372 51.6667C169.234 36.8019 157.478 24.1533 142.547 15.2719C127.615 6.39038 110.157 1.66207 92.3118 1.66669C44.7715 1.66669 5.67561 34.5584 1.08203 76.6667" stroke="black" stroke-width="1.5" stroke-linecap="round" stroke-linejoin="round"/>
<path d="M147.327 51.6667H178.501C179.223 51.6667 179.938 51.5373 180.606 51.2861C181.273 51.0348 181.88 50.6665 182.391 50.2022C182.901 49.7379 183.307 49.1867 183.583 48.5801C183.86 47.9735 184.002 47.3233 184.002 46.6667V18.3333M8.70312 118.333C22.8598 147.767 55.1707 168.333 92.7629 168.333C140.312 168.333 179.408 135.442 184.002 93.3333" stroke="black" stroke-width="1.5" stroke-linecap="round" stroke-linejoin="round"/>
<path d="M37.7573 118.333H6.58333C5.12429 118.333 3.72502 118.86 2.69332 119.798C1.66163 120.735 1.08203 122.007 1.08203 123.333V151.667" stroke="black" stroke-width="1.5" stroke-linecap="round" stroke-linejoin="round"/>
<path d="M115.237 110C116.453 110 117.619 109.561 118.479 108.78C119.339 107.998 119.822 106.938 119.822 105.833C119.822 104.728 119.339 103.668 118.479 102.887C117.619 102.106 116.453 101.667 115.237 101.667C114.021 101.667 112.855 102.106 111.995 102.887C111.136 103.668 110.653 104.728 110.653 105.833C110.653 106.938 111.136 107.998 111.995 108.78C112.855 109.561 114.021 110 115.237 110ZM69.393 68.3334C70.6089 68.3334 71.7749 67.8944 72.6347 67.113C73.4944 66.3316 73.9774 65.2718 73.9774 64.1667C73.9774 63.0616 73.4944 62.0018 72.6347 61.2204C71.7749 60.439 70.6089 60 69.393 60C68.1771 60 67.0111 60.439 66.1513 61.2204C65.2916 62.0018 64.8086 63.0616 64.8086 64.1667C64.8086 65.2718 65.2916 66.3316 66.1513 67.113C67.0111 67.8944 68.1771 68.3334 69.393 68.3334Z" fill="black" stroke="black" stroke-width="1.5" stroke-linecap="round" stroke-linejoin="round"/>
<path d="M119.822 60L64.8086 110" stroke="black" stroke-width="1.5" stroke-linecap="round" stroke-linejoin="round"/>
</svg>
