<svg width="100" height="88" viewBox="0 0 100 88" fill="none" xmlns="http://www.w3.org/2000/svg">
<path fill-rule="evenodd" clip-rule="evenodd" d="M79.8584 21.6191H1.9116C1.54003 21.6182 1.17679 21.5112 0.866411 21.311C0.556035 21.1108 0.312022 20.8262 0.164298 20.4921C0.0165733 20.1579 -0.0284415 19.7887 0.0347744 19.4299C0.0979902 19.0711 0.266688 18.7381 0.52018 18.4719L16.9711 1.18905C17.3276 0.81463 17.7587 0.515909 18.2377 0.31138C18.7168 0.106852 19.2335 0.000871489 19.7561 0H97.6986C98.0705 1.23098e-05 98.4343 0.106505 98.7456 0.306394C99.0562 0.506283 99.3008 0.790861 99.4497 1.12516C99.5976 1.45946 99.643 1.82892 99.5799 2.18816C99.5168 2.54739 99.3481 2.88074 99.0947 3.14724L82.6518 20.4301C82.2944 20.8055 81.8619 21.1048 81.3813 21.3094C80.9007 21.514 80.3823 21.6193 79.8584 21.6191ZM82.6491 34.0334C82.2917 33.658 81.8591 33.3587 81.3786 33.1541C80.898 32.9496 80.3796 32.8442 79.8557 32.8445H1.90889C1.53696 32.8445 1.17314 32.9509 0.862126 33.1508C0.551109 33.3507 0.306447 33.6353 0.1582 33.9695C0.00995288 34.3039 -0.0354219 34.6734 0.0276509 35.0326C0.0907236 35.3918 0.259496 35.7251 0.513233 35.9917L16.9684 53.2745C17.3249 53.649 17.756 53.9476 18.235 54.1522C18.7141 54.3566 19.2308 54.4627 19.7534 54.4635H97.6959C98.0678 54.4635 98.4316 54.357 98.7428 54.1571C99.0535 53.9572 99.2981 53.6727 99.447 53.3384C99.5949 53.0041 99.6403 52.6346 99.5772 52.2753C99.514 51.9162 99.3454 51.5828 99.0919 51.3162L82.6491 34.0334ZM99.0919 68.836L82.6491 86.1188C82.2917 86.4942 81.8591 86.7935 81.3786 86.9981C80.898 87.2027 80.3796 87.3082 79.8557 87.3079H1.90889C1.53696 87.3079 1.17314 87.2013 0.862126 87.0015C0.551109 86.8016 0.306447 86.517 0.1582 86.1827C0.00995288 85.8484 -0.0354219 85.479 0.0276509 85.1197C0.0907236 84.7605 0.259496 84.4271 0.513233 84.1606L16.9684 66.8778C17.3249 66.5034 17.756 66.2046 18.235 66.0002C18.7141 65.7956 19.2308 65.6896 19.7534 65.6887H97.6959C98.0678 65.6887 98.4316 65.7953 98.7428 65.9951C99.0535 66.195 99.2981 66.4797 99.447 66.8139C99.5949 67.1483 99.6403 67.5176 99.5772 67.8769C99.514 68.2361 99.3454 68.5695 99.0919 68.836Z" fill="url(#paint0_linear_621_3779)"/>
<defs>
<linearGradient id="paint0_linear_621_3779" x1="61.1058" y1="124.168" x2="127.655" y2="23.3332" gradientUnits="userSpaceOnUse">
<stop offset="0.08" stop-color="#9945FF"/>
<stop offset="0.3" stop-color="#8752F3"/>
<stop offset="0.5" stop-color="#5497D5"/>
<stop offset="0.6" stop-color="#43B4CA"/>
<stop offset="0.72" stop-color="#28E0B9"/>
<stop offset="0.97" stop-color="#19FB9B"/>
</linearGradient>
</defs>
</svg>
