<svg width="419" height="385" viewBox="0 0 419 385" fill="none" xmlns="http://www.w3.org/2000/svg">
<path d="M195.533 192.021C195.533 176.601 190.078 163.436 179.166 152.526C168.255 141.616 155.088 136.161 139.667 136.161C124.245 136.161 111.079 141.616 100.167 152.526C89.2557 163.436 83.8 176.601 83.8 192.021C83.8 207.441 89.2557 220.606 100.167 231.517C111.079 242.427 124.245 247.882 139.667 247.882C155.088 247.882 168.255 242.427 179.166 231.517C190.078 220.606 195.533 207.441 195.533 192.021ZM363.133 303.743C363.133 296.178 360.369 289.632 354.841 284.104C349.312 278.576 342.765 275.812 335.2 275.812C327.635 275.812 321.088 278.576 315.559 284.104C310.031 289.632 307.267 296.178 307.267 303.743C307.267 311.453 309.995 318.035 315.45 323.491C320.906 328.946 327.489 331.673 335.2 331.673C342.911 331.673 349.494 328.946 354.95 323.491C360.405 318.035 363.133 311.453 363.133 303.743ZM363.133 80.2998C363.133 72.7354 360.369 66.1892 354.841 60.6613C349.312 55.1334 342.765 52.3695 335.2 52.3695C327.635 52.3695 321.088 55.1334 315.559 60.6613C310.031 66.1892 307.267 72.7354 307.267 80.2998C307.267 88.0098 309.995 94.5923 315.45 100.047C320.906 105.503 327.489 108.23 335.2 108.23C342.911 108.23 349.494 105.503 354.95 100.047C360.405 94.5923 363.133 88.0098 363.133 80.2998ZM279.333 172.165V212.533C279.333 213.987 278.824 215.406 277.806 216.788C276.787 218.17 275.623 218.933 274.314 219.079L240.489 224.316C238.888 229.407 236.56 234.935 233.505 240.9C238.452 247.882 244.999 256.247 253.146 265.993C254.164 267.593 254.673 269.048 254.673 270.357C254.673 272.103 254.164 273.485 253.146 274.503C249.8 278.867 243.798 285.377 235.142 294.033C226.485 302.688 220.775 307.016 218.011 307.016C216.411 307.016 214.883 306.507 213.428 305.489L188.332 285.85C182.949 288.614 177.348 290.869 171.528 292.614C169.928 308.325 168.255 319.599 166.509 326.436C165.49 329.928 163.308 331.673 159.962 331.673H119.371C117.771 331.673 116.316 331.128 115.007 330.037C113.697 328.946 112.97 327.673 112.824 326.218L107.805 292.833C102.859 291.378 97.4029 289.123 91.438 286.068L65.687 305.489C64.6686 306.507 63.2137 307.016 61.3224 307.016C59.722 307.016 58.1944 306.434 56.7396 305.27C35.7896 285.923 25.3146 274.285 25.3146 270.357C25.3146 269.048 25.8238 267.666 26.8422 266.211C28.297 264.175 31.2795 260.32 35.7896 254.647C40.2997 248.973 43.7186 244.536 46.0464 241.336C42.7002 234.935 40.1542 228.971 38.4083 223.443L5.2375 218.206C3.78264 218.061 2.54601 217.37 1.5276 216.133C0.509201 214.897 0 213.478 0 211.878V171.51C0 170.055 0.509201 168.637 1.5276 167.255C2.54601 165.873 3.7099 165.109 5.01927 164.964L38.8448 159.727C40.4451 154.635 42.7729 149.107 45.8281 143.143C40.8816 136.161 34.3347 127.796 26.1875 118.049C25.1691 116.449 24.6599 114.995 24.6599 113.685C24.6599 111.94 25.1691 110.485 26.1875 109.321C29.3882 104.957 35.3531 98.4837 44.0823 89.9009C52.8115 81.3181 58.5582 77.0267 61.3224 77.0267C62.9227 77.0267 64.4503 77.5359 65.9052 78.5542L91.0016 98.1927C95.9481 95.5743 101.549 93.2467 107.805 91.2101C109.406 75.4993 111.079 64.2981 112.824 57.6064C113.843 54.1151 116.025 52.3695 119.371 52.3695H159.962C161.562 52.3695 163.017 52.915 164.327 54.006C165.636 55.097 166.363 56.3699 166.509 57.8246L171.528 91.2101C176.475 92.6649 181.93 94.9196 187.895 97.9745L213.646 78.5542C214.81 77.5359 216.265 77.0267 218.011 77.0267C219.611 77.0267 221.139 77.6086 222.594 78.7724C243.544 98.12 254.019 109.758 254.019 113.685C254.019 114.849 253.51 116.231 252.491 117.831C250.745 120.159 247.69 124.087 243.326 129.614C238.961 135.142 235.688 139.506 233.505 142.707C236.851 149.689 239.325 155.654 240.925 160.6L274.096 165.618C275.551 165.909 276.787 166.673 277.806 167.91C278.824 169.146 279.333 170.564 279.333 172.165ZM419 288.468V319.017C419 321.345 408.161 323.6 386.484 325.782C384.738 329.709 382.556 333.492 379.937 337.128C387.357 353.567 391.067 363.604 391.067 367.241C391.067 367.823 390.776 368.332 390.194 368.768C372.444 379.097 363.424 384.261 363.133 384.261C361.969 384.261 358.623 380.842 353.095 374.005C347.566 367.168 343.784 362.222 341.747 359.167C338.837 359.458 336.655 359.604 335.2 359.604C333.745 359.604 331.563 359.458 328.653 359.167C326.616 362.222 322.834 367.168 317.305 374.005C311.777 380.842 308.431 384.261 307.267 384.261C306.976 384.261 297.956 379.097 280.206 368.768C279.624 368.332 279.333 367.823 279.333 367.241C279.333 363.604 283.043 353.567 290.463 337.128C287.844 333.492 285.662 329.709 283.916 325.782C262.239 323.6 251.4 321.345 251.4 319.017V288.468C251.4 286.141 262.239 283.886 283.916 281.704C285.807 277.485 287.99 273.703 290.463 270.357C283.043 253.919 279.333 243.882 279.333 240.245C279.333 239.663 279.624 239.154 280.206 238.717C280.788 238.427 283.334 236.972 287.844 234.353C292.354 231.735 296.646 229.262 300.72 226.934C304.793 224.607 306.976 223.443 307.267 223.443C308.431 223.443 311.777 226.825 317.305 233.59C322.834 240.354 326.616 245.264 328.653 248.319C331.563 248.028 333.745 247.882 335.2 247.882C336.655 247.882 338.837 248.028 341.747 248.319C349.167 237.99 355.859 229.844 361.824 223.879L363.133 223.443C363.715 223.443 372.735 228.535 390.194 238.717C390.776 239.154 391.067 239.663 391.067 240.245C391.067 243.882 387.357 253.919 379.937 270.357C382.41 273.703 384.593 277.485 386.484 281.704C408.161 283.886 419 286.141 419 288.468ZM419 65.0254V95.5743C419 97.9018 408.161 100.157 386.484 102.339C384.738 106.266 382.556 110.049 379.937 113.685C387.357 130.124 391.067 140.161 391.067 143.798C391.067 144.38 390.776 144.889 390.194 145.325C372.444 155.654 363.424 160.818 363.133 160.818C361.969 160.818 358.623 157.399 353.095 150.562C347.566 143.725 343.784 138.779 341.747 135.724C338.837 136.015 336.655 136.161 335.2 136.161C333.745 136.161 331.563 136.015 328.653 135.724C326.616 138.779 322.834 143.725 317.305 150.562C311.777 157.399 308.431 160.818 307.267 160.818C306.976 160.818 297.956 155.654 280.206 145.325C279.624 144.889 279.333 144.38 279.333 143.798C279.333 140.161 283.043 130.124 290.463 113.685C287.844 110.049 285.662 106.266 283.916 102.339C262.239 100.157 251.4 97.9018 251.4 95.5743V65.0254C251.4 62.6979 262.239 60.4431 283.916 58.261C285.807 54.0424 287.99 50.2601 290.463 46.9143C283.043 30.4761 279.333 20.4386 279.333 16.8019C279.333 16.22 279.624 15.7108 280.206 15.2744C280.788 14.9835 283.334 13.5288 287.844 10.9103C292.354 8.29183 296.646 5.81883 300.72 3.4913C304.793 1.16377 306.976 0 307.267 0C308.431 0 311.777 3.38219 317.305 10.1466C322.834 16.911 326.616 21.8206 328.653 24.8755C331.563 24.5846 333.745 24.4391 335.2 24.4391C336.655 24.4391 338.837 24.5846 341.747 24.8755C349.167 14.5471 355.859 6.40071 361.824 0.436412L363.133 0C363.715 0 372.735 5.09148 390.194 15.2744C390.776 15.7108 391.067 16.22 391.067 16.8019C391.067 20.4386 387.357 30.4761 379.937 46.9143C382.41 50.2601 384.593 54.0424 386.484 58.261C408.161 60.4431 419 62.6979 419 65.0254Z" fill="black"/>
</svg>
