<svg width="100" height="100" viewBox="0 0 100 100" fill="none" xmlns="http://www.w3.org/2000/svg">
<path d="M76.918 32.7612H68.1333C67.1098 32.7612 66.136 32.3296 65.4585 31.5785L61.8949 27.6232C61.3645 27.0329 60.6 26.697 59.8003 26.697C59.0005 26.697 58.236 27.0349 57.7056 27.6232L54.6496 31.0166C53.6489 32.1261 52.2131 32.7632 50.7048 32.7632H2.61884C1.24934 36.5984 0.356361 40.6494 0 44.8509H45.3946C46.1922 44.8509 46.9568 44.5313 47.5079 43.9654L51.7345 39.6315C52.2628 39.09 52.9921 38.7847 53.7546 38.7847H53.9286C54.7304 38.7847 55.4928 39.1226 56.0232 39.713L59.5848 43.6682C60.2623 44.4214 61.2361 44.8509 62.2596 44.8509H99.3128C98.9564 40.6473 98.0635 36.5964 96.694 32.7632H76.9159L76.918 32.7612Z" fill="black"/>
<path d="M27.6447 71.5479C28.4361 71.5479 29.1947 71.2305 29.7415 70.6684L33.935 66.3634C34.4592 65.8255 35.1828 65.5222 35.9393 65.5222H36.112C36.9075 65.5222 37.664 65.8579 38.1902 66.4423L41.7239 70.3711C42.3961 71.1193 43.3623 71.5459 44.3777 71.5459H94.1986C96.0652 67.7525 97.4322 63.6822 98.2462 59.4177H50.4255C49.41 59.4177 48.4438 58.989 47.7716 58.2429L44.238 54.314C43.7117 53.7276 42.9532 53.394 42.1597 53.394C41.3662 53.394 40.6077 53.7296 40.0814 54.314L37.0493 57.6848C36.0564 58.7868 34.6319 59.4197 33.1333 59.4197H1.06918C1.88322 63.6842 3.25229 67.7546 5.11677 71.5479H27.6447Z" fill="black"/>
<path d="M62.4421 20.2897C63.233 20.2897 63.991 19.9582 64.5375 19.3711L68.7282 14.8752C69.252 14.3135 69.9751 13.9967 70.7311 13.9967H70.9036C71.6986 13.9967 72.4546 14.3472 72.9805 14.9597L76.5117 19.0628C77.1835 19.8441 78.149 20.2897 79.1638 20.2897H88.6318C79.6157 7.96975 65.275 0 49.1203 0C32.9656 0 18.6249 7.96975 9.60875 20.2897H62.4421Z" fill="black"/>
<path d="M43.3973 83.172H30.385C29.3651 83.172 28.3948 82.7247 27.7197 81.9463L24.1709 77.8472C23.6424 77.2354 22.8806 76.8873 22.0837 76.8873C21.2868 76.8873 20.525 77.2375 19.9965 77.8472L16.9514 81.364C15.9543 82.5137 14.5236 83.1741 13.0186 83.1741H12.8163C21.8814 93.0999 34.7906 99.3128 49.1242 99.3128C63.4578 99.3128 76.3649 93.0999 85.4321 83.1741H43.3973V83.172Z" fill="black"/>
</svg>
